<?xml version="1.0" encoding="UTF-8"?>
<svg id="Layer_1" data-name="Layer 1" xmlns="http://www.w3.org/2000/svg" version="1.1" viewBox="0 0 1730.2 500">
  <defs>
    <style>
      .cls-1 {
        fill: #000;
        stroke-width: 0px;
      }
    </style>
  </defs>
  <g id="Logo">
    <g id="Medisch_centrum" data-name="Medisch centrum">
      <path class="cls-1" d="M482.5,238.7c2.8.1,5.3.2,7.5.2s5.1,0,8.8-.2l.2,1.9-5.6,1.7c-.7.2-1,.7-1,1.5,0,1.9,0,4.4,0,7.4v35.8c0,3.5,0,6.4,0,8.8,0,.7.4,1.1,1.2,1.4l5.3,1.6v1.9c-3.8,0-7.5-.1-11.1-.1s-6.9,0-10.3.1l-.2-1.9,5.1-1.5c.7-.2,1-.7,1.1-1.5,0-2.3,0-5.2,0-8.7v-38.2l-21.8,51.7-3.2.3-22-52.1v38.2c0,3.5,0,6.4,0,8.7,0,.8.4,1.4,1.2,1.5l5,1.5v1.9c-3.5,0-6.4-.1-8.7-.1s-5.3,0-9.1.1l-.2-1.9,5.4-1.6c.8-.2,1.2-.7,1.2-1.4,0-2.4,0-5.3,0-8.8v-35.8c0-3,0-5.4,0-7.4,0-.8-.4-1.2-1-1.5l-5.5-1.7v-1.9c3.7.1,6.7.2,8.9.2s5.2,0,7.9-.2l20.5,48.4,20.4-48.4h0Z"/>
      <path class="cls-1" d="M519.8,238.9h10.7c6.6,0,13.5,0,20.9-.2l.2.3-2.6,13.6-1.7.3-2.8-10.2h-20.4v24.3h4c3,0,6.5,0,10.3,0,.8,0,1.2-.4,1.5-1.2l1.5-5.9h2.4c0,4.1-.1,7.1-.1,9.1s0,4.9.1,9l-2.4.2-1.6-6.1c-.2-.8-.7-1.2-1.3-1.2-3.8,0-7.3,0-10.4,0h-4v16.1c0,3.3,0,6.5,0,9.7h21.2l5.4-11.2,2-.3-1,15.4-.3.3c-7.6,0-14.7-.1-21.1-.1h-10.5c-3.6,0-7.2,0-11,.1l-.2-1.9,5.4-1.6c.7-.2,1.1-.7,1.2-1.4,0-1.2,0-2.5,0-4s0-3,0-4.8v-35.8c0-1.5,0-2.8,0-4.1,0-1.2,0-2.3,0-3.3,0-.8-.4-1.2-1-1.5l-5.5-1.7v-1.9c3.9,0,7.5,0,11,0h0Z"/>
      <path class="cls-1" d="M573.8,300.5c-3.6,0-7.2,0-11,.1l-.2-1.9,5.4-1.6c.8-.2,1.2-.7,1.2-1.4,0-1.2,0-2.5,0-4s0-3,0-4.8v-35.8c0-1.5,0-2.8,0-4.1,0-1.2,0-2.3,0-3.3,0-.8-.4-1.2-1-1.5l-5.5-1.7v-1.9c3.7.1,7.4.2,11,.2s5.8,0,8.5-.2c2.7-.1,5.6-.2,8.4-.2,10.3,0,18,2.4,23.2,7.1s7.8,11.6,7.8,20.9-2.8,19.4-8.7,25.4c-5.8,6.1-13.8,9-24.2,9s-5.4,0-7.6-.1c-2.2,0-4.7,0-7.4,0h0s0,0,0,0ZM578.1,296.6c1.7.2,3.4.4,5.1.4s3.3.1,5,.1c7.8,0,13.7-2.3,17.7-6.9,4.1-4.6,6.1-11.6,6.1-21s-1.9-15.9-5.8-20.4c-3.9-4.4-10-6.6-18.3-6.6s-2.8,0-4.4,0c-1.6,0-3.4.1-5.4.3v54h0,0Z"/>
      <path class="cls-1" d="M647.3,287c0,1.7,0,3.4,0,4.8,0,1.4,0,2.8,0,4,0,.7.6,1.2,1.5,1.5l5,1.5v1.9c-3.7,0-7.3-.1-10.9-.1s-7.2,0-11,.1l-.2-1.9,5.4-1.6c.7-.2,1.1-.7,1.2-1.4,0-1.2,0-2.5,0-4s0-3,0-4.8v-35.8c0-1.5,0-2.8,0-4.1,0-1.2,0-2.3,0-3.3,0-.8-.4-1.2-1-1.5l-5.5-1.7v-1.9c3.7.1,7.3.2,10.9.2s7.2,0,11-.2l.2,1.9-5.5,1.6c-.7.2-1,.6-1.2,1.4,0,1.1,0,2.2,0,3.4s0,2.6,0,4v36h0Z"/>
      <path class="cls-1" d="M694.6,242.8c-3.1-1.1-5.9-1.5-8.5-1.5-3.9,0-7,.9-9.3,2.8-2.3,1.9-3.5,4.5-3.5,7.9s.4,3.6,1.2,5c.8,1.4,1.9,2.7,3.3,3.8,1.3,1,2.9,2,4.6,2.9s3.5,1.7,5.4,2.5c2,.9,4,1.9,5.9,2.8,1.9,1,3.7,2.2,5.2,3.5,1.5,1.4,2.8,2.9,3.7,4.8s1.3,4,1.3,6.5c0,5.9-2.3,10.3-6.9,13.4-4.6,3.1-10.5,4.6-17.7,4.6s-9.9-.8-15.5-2.4l-.2-.3,2.2-15,2-.3,3.1,12.5c3.2,1.2,6.3,1.9,9.6,1.9s7.8-1,10.3-2.9,3.7-4.7,3.7-8.3-.4-3.5-1.2-5-1.9-2.6-3.2-3.7-2.8-2-4.6-2.8c-1.7-.9-3.5-1.7-5.3-2.5-2-.9-4.1-1.9-6-2.8-1.9-1-3.7-2.2-5.3-3.6s-2.8-3-3.8-5c-.9-2-1.4-4.3-1.4-7,0-5.3,2.2-9.5,6.7-12.4,4.5-2.9,10-4.3,16.6-4.3s9.5.6,14.6,1.6l.3.3-2.6,13.8-1.7.3-3-11.1h0Z"/>
      <path class="cls-1" d="M759.2,254.1l-1.7.2-3.2-11.6c-3.7-.9-7-1.4-10-1.4-7.2,0-12.9,2.5-17,7.5-4.1,5-6.2,11.6-6.2,19.6s2.3,15.5,7,20.6c4.7,5.1,11.2,7.7,19.5,7.7s9.6-.9,14.8-2.6l.5,2c-5.8,4-12.4,6-19.7,6s-17.2-2.9-23.1-8.7c-5.9-5.8-8.8-13.4-8.8-22.9s3.2-18.1,9.7-24c6.5-5.9,14.8-8.8,25.2-8.8s10.1.6,15.3,1.9l.3.3-2.7,14.3h0Z"/>
      <path class="cls-1" d="M787,270v17c0,3.5,0,6.4,0,8.7,0,.8.4,1.3,1.2,1.5l4.9,1.5v1.9c-3.4,0-6.9-.1-10.4-.1s-7.2,0-11,.1l-.2-1.9,5.4-1.6c.8-.2,1.2-.7,1.2-1.4,0-2.4,0-5.3,0-8.8v-35.8c0-3,0-5.4,0-7.4,0-.8-.4-1.2-1-1.5l-5.5-1.7v-1.9c3.7.1,7.3.2,10.9.2s7,0,10.5-.2l.2,1.9-5,1.5c-.7.2-1.1.6-1.2,1.4,0,2.1,0,4.6,0,7.4v15h32.1v-15c0-2.8,0-5.3,0-7.4,0-.7-.4-1.2-1.2-1.4l-4.9-1.5v-1.9c3.5.1,7.1.2,10.6.2s7,0,10.8-.2l.2,1.9-5.6,1.7c-.7.2-1,.7-1,1.5,0,1.9,0,4.4,0,7.4v35.8c0,3.5,0,6.4,0,8.8,0,.7.4,1.1,1.2,1.4l5.3,1.6v1.9c-3.8,0-7.5-.1-11.1-.1s-6.9,0-10.3.1l-.2-1.9,5-1.5c.7-.2,1.1-.7,1.2-1.5,0-2.4,0-5.3,0-8.7v-17h-32.2,0Z"/>
      <path class="cls-1" d="M916.4,254.1l-1.7.2-3.2-11.6c-3.7-.9-7-1.4-10-1.4-7.2,0-12.9,2.5-17,7.5-4.1,5-6.2,11.6-6.2,19.6s2.3,15.5,7,20.6c4.7,5.1,11.2,7.7,19.5,7.7s9.6-.9,14.8-2.6l.5,2c-5.8,4-12.4,6-19.7,6s-17.2-2.9-23.1-8.7-8.8-13.4-8.8-22.9,3.2-18.1,9.7-24c6.4-5.9,14.8-8.8,25.2-8.8s10.1.6,15.3,1.9l.3.3-2.7,14.3h0Z"/>
      <path class="cls-1" d="M939.8,238.9h10.7c6.6,0,13.5,0,20.9-.2l.2.3-2.6,13.6-1.7.3-2.8-10.2h-20.4v24.3h4c3,0,6.5,0,10.3,0,.8,0,1.2-.4,1.5-1.2l1.5-5.9h2.4c0,4.1-.1,7.1-.1,9.1s0,4.9.1,9l-2.4.2-1.6-6.1c-.2-.8-.7-1.2-1.3-1.2-3.8,0-7.3,0-10.4,0h-4v16.1c0,3.3,0,6.5,0,9.7h21.2l5.4-11.2,2-.3-1,15.4-.3.3c-7.6,0-14.7-.1-21.1-.1h-10.5c-3.6,0-7.2,0-11,.1l-.2-1.9,5.4-1.6c.7-.2,1.1-.7,1.2-1.4,0-1.2,0-2.5,0-4s0-3,0-4.8v-35.8c0-1.5,0-2.8,0-4.1,0-1.2,0-2.3,0-3.3,0-.8-.4-1.2-1-1.5l-5.5-1.7v-1.9c3.8,0,7.5,0,11,0h0Z"/>
      <path class="cls-1" d="M993.3,251.3v35.7c0,3.5,0,6.4,0,8.6,0,.8.4,1.4,1.1,1.5l5.3,1.5v2c-3.6,0-6.6-.1-9-.1s-5.3,0-9.1.1l-.2-1.9,5.4-1.6c.8-.2,1.2-.7,1.2-1.4,0-2.4,0-5.3,0-8.8v-35.8c0-3,0-5.4,0-7.4,0-.8-.4-1.2-1-1.5l-5.5-1.7v-1.9c3.7.1,6.7.2,9,.2s2.7,0,4-.2l37.1,46.3v-34c0-2.8,0-5.3,0-7.4,0-.7-.4-1.1-1.2-1.4l-5.2-1.5v-2c3.7.1,6.7.2,9.1.2s5.4,0,9-.2l.2,1.9-5.6,1.7c-.7.2-1.1.7-1.1,1.5,0,1.9,0,4.4,0,7.4v49.3l-3.7.3-39.8-49.6h0Z"/>
      <path class="cls-1" d="M1075.2,300.5c-3.6,0-7.6,0-12,.1l-.2-1.9,6.5-1.9c.7-.2,1.1-.7,1.2-1.4,0-2.2,0-5.1,0-8.5v-44h-15.6l-4,11.8-1.7.3-1.2-15.8.3-.3c7.2.1,14.2.2,20.8.2h11.8c6.6,0,13.5,0,20.9-.2l.2.3-2.8,15.5-1.7.3-2.8-12.1h-15.7v44c0,3.5,0,6.3,0,8.5,0,.7.4,1.2,1.2,1.4l6.5,1.9v1.9c-4.3,0-8.3-.1-11.9-.1h0,0Z"/>
      <path class="cls-1" d="M1123.8,287c0,1.7,0,3.3,0,4.8,0,1.4,0,2.6,0,3.8,0,.9.4,1.5,1.2,1.7l4.9,1.4v1.9c-3.4,0-6.9-.1-10.4-.1s-7.2,0-10.9.1l-.2-1.9,5.4-1.6c.7-.2,1.1-.7,1.2-1.4,0-1.2,0-2.5,0-4s0-3,0-4.8v-35.8c0-1.5,0-2.8,0-4.1,0-1.2,0-2.3,0-3.3,0-.8-.4-1.2-1.1-1.5l-5.5-1.7v-1.9c3.7.1,7.5.2,11.1.2s1.6,0,2.7,0c1.1,0,2.4-.1,4-.1,1.6,0,3-.1,4-.1,1.1,0,1.9,0,2.5,0,6.8,0,11.9,1.2,15.3,3.8,3.4,2.5,5.1,6.2,5.1,11.1s-1.2,7.9-3.5,10.6-5.9,4.8-10.6,6.3c1.9,2.8,3.6,5.6,5.2,8.2,1.5,2.6,3,5.1,4.4,7.2,1.3,2.2,2.6,4.1,3.7,5.8s2.2,3,3.2,4c.5.5,1,.9,1.5,1.3s1,.7,1.5.9c.6.2,1.1.4,1.7.6s1.2.3,2,.5v1.9c-2,.2-3.8.4-5.2.4s-2.3,0-3.2,0c-.9,0-1.7-.2-2.5-.3-.7-.2-1.3-.4-1.9-.7-.6-.3-1.2-.6-1.7-1-1.2-.9-2.4-2.2-3.6-4-1.2-1.7-2.4-3.7-3.7-5.9-1.2-2.2-2.6-4.5-4-7s-2.8-4.9-4.3-7.2c-.4-.7-.8-1.2-1.2-1.7-.3-.4-.7-.7-1.1-1s-.8-.4-1.3-.5c-.5,0-1.1-.1-1.9-.2h-3.1c0,0,0,15.2,0,15.2h0v.2h0s0,0,0,0ZM1123.8,268.3c1.8,0,3.5.1,5,.1,5.1,0,8.8-1,11.2-3.2,2.4-2.2,3.5-5.6,3.5-10.1s-1.1-7.7-3.4-9.8-5.8-3.1-10.6-3.1-1.7,0-2.7,0c-.9,0-2,.1-3,.2v25.8h0,0Z"/>
      <path class="cls-1" d="M1162.8,238.7c3.8.1,7.4.2,10.9.2s7.2,0,10.9-.2l.2,1.9-5.5,1.6c-.7.2-1.1.6-1.2,1.4,0,1.1,0,2.2,0,3.4s0,2.6,0,4v24.2c0,8.4,1.3,14.3,4,17.5,2.7,3.2,7,4.9,12.9,4.9s10.4-1.7,13.1-5c2.7-3.3,4.1-9,4.1-16.8v-24.7c0-1.4,0-2.8,0-4,0-1.2,0-2.4-.1-3.4,0-.7-.4-1.1-1.2-1.4l-5.2-1.5v-2c3.6.1,6.9.2,9.5.2s5.7,0,9.3-.2l.2,1.9-5.6,1.7c-.7.2-1.1.7-1.1,1.5,0,1,0,2,0,3.3s0,2.6,0,4.1v22.6c0,9.6-2,16.8-5.9,21.4-4,4.6-10.1,6.9-18.6,6.9s-14.3-2.1-18.3-6.2c-4-4.1-5.9-10.6-5.9-19.4v-25.4c0-1.5,0-2.8,0-4.1,0-1.2,0-2.3,0-3.3,0-.8-.4-1.2-1.1-1.5l-5.5-1.7.2-1.9h0s0,0,0,0Z"/>
      <path class="cls-1" d="M1289.6,238.7c2.8.1,5.3.2,7.5.2s5.1,0,8.8-.2l.2,1.9-5.6,1.7c-.7.2-1.1.7-1.1,1.5,0,1.9,0,4.4,0,7.4v35.8c0,3.5,0,6.4,0,8.8,0,.7.4,1.1,1.2,1.4l5.3,1.6v1.9c-3.8,0-7.5-.1-11.1-.1s-6.9,0-10.3.1l-.2-1.9,5.1-1.5c.7-.2,1.1-.7,1.1-1.5,0-2.3,0-5.2,0-8.7v-38.2l-21.9,51.7-3.2.3-22-52.1v38.2c0,3.5,0,6.4,0,8.7,0,.8.4,1.4,1.2,1.5l4.9,1.5v1.9c-3.5,0-6.4-.1-8.7-.1s-5.3,0-9.1.1l-.2-1.9,5.4-1.6c.8-.2,1.2-.7,1.2-1.4,0-2.4,0-5.3,0-8.8v-35.8c0-3,0-5.4,0-7.4,0-.8-.4-1.2-1.1-1.5l-5.5-1.7v-1.9c3.7.1,6.7.2,9,.2s5.2,0,7.9-.2l20.5,48.4,20.5-48.4h0Z"/>
    </g>
    <g id="Blauwpoorte">
      <path class="cls-1" d="M22.5,370.5c6.8,0,19.2.6,28.2,7.7,3.9,3,11.1,10.5,11.1,25.5s-1.3,16.8-12.2,24.2c17.2,4.3,23.4,19.2,23.4,31s-5.9,21.4-12.5,26.5c-9.8,7.7-21,8.1-29.5,8.1H.4v-123h22.1s0,0,0,0ZM14.1,424.6h10.3c7.2,0,24.2-1.5,24.2-20.5s-19.9-20.6-23.8-20.6h-10.7v41.1h0ZM14.1,480.6h15.6c7.9,0,15.6-.6,21.6-5.2,4.8-3.5,8.1-9.6,8.1-17s-5.8-15.5-10.5-18c-4.6-2.6-11.1-3.7-20.8-3.7h-14v44h0Z"/>
      <path class="cls-1" d="M166.2,370.5v110.1h33.9v12.9h-47.5v-123h13.7,0Z"/>
      <path class="cls-1" d="M340.8,458.9h-52.4l-14.7,34.7h-15.1l56.5-129,55.1,128.9h-15.1l-14.4-34.6h0ZM335.4,446l-20.6-49.3-21,49.3h41.7Z"/>
      <path class="cls-1" d="M455.7,446c0,10.3,0,21.6,9.8,29.9,5,4.3,13.5,7,20.3,7s15.3-2.8,20.3-7c9.8-8.3,9.8-19.5,9.8-29.9v-75.4h13.7v79.1c0,10.3-1.1,20.3-7.7,29.5-7.3,10.1-20.3,16.6-36,16.6s-28.6-6.4-36-16.6c-6.6-9.2-7.7-19.2-7.7-29.5v-79.1h13.7v75.4h0Z"/>
      <path class="cls-1" d="M616.2,370.5l32.5,92.2,38.5-98.4,36.5,98.4,36-92.2h15.1l-51.6,129.4-36.2-98.4-38.7,98.4-47.2-129.4h15.1,0Z"/>
      <path class="cls-1" d="M868.8,370.5c12.4,0,22.7,1.5,31,8.6,9,7.7,11.2,18.6,11.2,26.3,0,17.4-10.9,34.5-38.9,34.5h-12v53.5h-13.7v-123h22.3ZM860.1,427.2h11.2c16.3,0,26-8.1,26-22.3s-18.2-21.4-27.1-21.4h-10.1v43.7h0,0Z"/>
      <path class="cls-1" d="M978.3,432.1c0-36.7,28.6-63.6,64-63.6s64,26.9,64,63.6-28.4,63.6-64,63.6-64-27.1-64-63.6h0ZM992.4,432.1c0,28.2,22.3,50.7,49.9,50.7s49.9-22.5,49.9-50.7-22.3-50.7-49.9-50.7-50,22.5-50,50.7h0Z"/>
      <path class="cls-1" d="M1179.1,432.1c0-36.7,28.6-63.6,64-63.6s64,26.9,64,63.6-28.4,63.6-64,63.6-64-27.1-64-63.6ZM1193.1,432.1c0,28.2,22.3,50.7,49.9,50.7s49.9-22.5,49.9-50.7-22.3-50.7-49.9-50.7-49.9,22.5-49.9,50.7Z"/>
      <path class="cls-1" d="M1406.3,370.5c8.3,0,20.7.6,29.9,6.8,7.2,4.8,13.5,14.2,13.5,27.3,0,18.8-12.4,32.6-31,33.9l39.1,55h-16.6l-37.5-53.9h-3.5v53.9h-13.7v-123h19.8c0,0,0,0,0,0h0ZM1400.2,427.5h8.7c17,0,27.1-8.1,27.1-22.5s-2-13.7-9.8-18c-5.6-3.2-11.8-3.5-17.7-3.5h-8.3v44.1h0Z"/>
      <path class="cls-1" d="M1563.7,383.5v110h-13.7v-110h-29.9v-12.9h73.4v12.9h-29.9Z"/>
      <path class="cls-1" d="M1730.2,383.5h-50.1v36.5h48.7v12.9h-48.7v47.7h50.1v12.9h-63.8v-123h63.8v12.9h0Z"/>
    </g>
    <g id="Lijn_rechts" data-name="Lijn rechts">
      <rect class="cls-1" x="1386.5" y="261.9" width="343.7" height="6.3"/>
    </g>
    <g id="Lijn_links" data-name="Lijn links">
      <rect class="cls-1" x=".2" y="261.9" width="343.7" height="6.3"/>
    </g>
    <path id="Koepel" class="cls-1" d="M1078.4,184.7v14h-6.4v-12.6l-24.7-21.9c-.7-.6-1.1-1.4-1.1-2.4v-29.2l-27-3.3c-.8-.1-1.5-.5-2.1-1.2-.1-.2-15.5-18.9-36.8-37.3-28-24.1-53.3-36.8-73.7-36.8s-11.6-12.2-15.1-25.8c-.6-2.3-1.2-4.7-1.5-5.6-2-2.5-17.2-9.9-30.8-15.8h0c-13.6,5.9-28.8,13.4-30.8,15.8-.4.9-1,3.2-1.5,5.6-3.5,13.6-7.3,25.8-15.1,25.8-20.3,0-45.8,12.7-73.7,36.8-21.4,18.4-36.7,37.2-36.8,37.3-.5.6-1.2,1.1-2.1,1.2l-27,3.3v29.2c0,.9-.4,1.8-1,2.4l-24.7,21.9v12.6h-6.3v-14c0-.9.4-1.8,1-2.4l24.7-21.9v-30.5c0-1.6,1.2-3,2.8-3.2l28.5-3.5c3.5-4.1,17.8-20.7,36.7-37.1,12.9-11.1,25.3-19.9,37-26.3,14.8-8.1,28.6-12.1,40.9-12.1s1.9,0,4.5-6.4c1.9-4.5,3.4-10.4,4.5-14.6.9-3.6,1.4-5.6,2-6.8.9-1.8,3.1-4.3,19.1-12,7.6-3.7,15.1-6.9,16.1-7.3h0c0,0,.1,0,.2,0,0,0,.1,0,.2,0,0,0,.1,0,.2,0,0,0,.2,0,.2,0s.1,0,.2,0h.5c0,0,.1,0,.2,0,0,0,.1,0,.2,0,.1,0,.3,0,.5.1,0,0,0,0,.1,0h0s0,0,0,0c.8.3,8.4,3.7,16.1,7.4,16,7.7,18.2,10.3,19.1,12,.6,1.2,1,3.2,2,6.8,1.1,4.3,2.6,10.1,4.5,14.6,2.7,6.4,4.5,6.4,4.5,6.4,12.3,0,26,4.1,40.9,12.1,11.7,6.4,24.2,15.2,37,26.3,18.9,16.3,33.2,32.9,36.7,37.1l28.5,3.5c1.6.2,2.8,1.5,2.8,3.2v30.5l24.7,21.9c.4.6.8,1.5.8,2.4h0Z"/>
  </g>
</svg>