<?xml version="1.0" encoding="UTF-8"?>
<svg id="Layer_1" data-name="Layer 1" xmlns="http://www.w3.org/2000/svg" version="1.1" viewBox="0 0 1730.23 500">
  <defs>
    <style>
      .cls-1 {
        fill: #000;
        stroke-width: 0px;
      }
    </style>
  </defs>
  <g id="Logo">
    <g id="Medisch_centrum" data-name="Medisch centrum">
      <path class="cls-1" d="M482.45,238.73c2.79.12,5.26.19,7.54.19s5.07-.07,8.78-.19l.19,1.91-5.56,1.73c-.68.25-1.05.74-1.05,1.49-.07,1.91-.07,4.39-.07,7.35v35.79c0,3.46.07,6.42.07,8.78.07.68.44,1.11,1.23,1.35l5.26,1.61.07,1.91c-3.89-.07-7.6-.12-11.13-.12s-6.93.07-10.32.12l-.19-1.91,5.07-1.54c.68-.25,1.05-.68,1.11-1.54.07-2.28.07-5.19.07-8.72v-38.21l-21.82,51.74-3.21.31-22-52.12v38.21c0,3.46.07,6.37.07,8.72.07.81.44,1.35,1.18,1.54l4.95,1.54.07,1.91c-3.53-.07-6.42-.12-8.78-.12s-5.32.07-9.14.12l-.19-1.91,5.44-1.61c.81-.25,1.18-.68,1.18-1.35.07-2.41.07-5.32.07-8.78v-35.79c0-2.97-.07-5.38-.07-7.35-.07-.81-.37-1.23-1.05-1.49l-5.51-1.73-.07-1.91c3.77.12,6.8.19,9.02.19,2.53,0,5.19-.07,7.91-.19l20.53,48.41,20.4-48.35h-.03Z"/>
      <path class="cls-1" d="M519.78,238.92h10.7c6.61,0,13.54-.07,20.9-.19l.25.31-2.6,13.6-1.73.31-2.79-10.2h-20.4v24.3h4.02c3.03,0,6.49-.07,10.26-.07.81-.07,1.23-.44,1.49-1.18l1.54-5.93,2.41-.07c-.07,4.14-.12,7.17-.12,9.14s.07,4.88.12,9.02l-2.41.19-1.61-6.06c-.25-.81-.68-1.18-1.35-1.18-3.83-.07-7.3-.07-10.39-.07h-3.96v16.07c0,3.28.07,6.49.07,9.7h21.21l5.38-11.19,1.98-.31-.99,15.39-.31.31c-7.6-.07-14.65-.12-21.09-.12h-10.51c-3.58,0-7.23.07-10.95.12l-.19-1.91,5.44-1.61c.74-.25,1.11-.68,1.18-1.35.07-1.18.07-2.47.07-3.96s.07-3.03.07-4.82v-35.79c0-1.49,0-2.84-.07-4.08,0-1.18-.07-2.28-.07-3.28-.07-.81-.37-1.23-1.05-1.49l-5.51-1.73-.07-1.91c3.96-.07,7.6,0,11.07,0h0Z"/>
      <path class="cls-1" d="M573.82,300.49c-3.58,0-7.23.07-10.95.12l-.19-1.91,5.44-1.61c.81-.25,1.18-.68,1.18-1.35.07-1.18.07-2.47.07-3.96s.07-3.03.07-4.82v-35.79c0-1.49,0-2.84-.07-4.08,0-1.18-.07-2.28-.07-3.28-.07-.81-.37-1.23-1.05-1.49l-5.51-1.73-.07-1.91c3.77.12,7.48.19,11.07.19,2.97,0,5.75-.07,8.53-.25,2.72-.12,5.56-.25,8.41-.25,10.26,0,17.99,2.35,23.18,7.05s7.79,11.63,7.79,20.9c0,10.88-2.84,19.35-8.65,25.35-5.75,6.06-13.79,9.02-24.17,9.02-2.84,0-5.38-.07-7.6-.12-2.23-.07-4.7-.07-7.42-.07v-.02ZM578.08,296.59c1.73.25,3.4.37,5.07.44s3.34.12,5,.12c7.79,0,13.72-2.28,17.74-6.86,4.08-4.58,6.12-11.56,6.12-21.02s-1.91-15.95-5.75-20.4c-3.89-4.45-9.95-6.61-18.3-6.61-1.35,0-2.79.07-4.39.07-1.61.07-3.4.12-5.44.31v53.97h-.07.01Z"/>
      <path class="cls-1" d="M647.33,286.96c0,1.73,0,3.4.07,4.82,0,1.42.07,2.79.07,3.96.07.74.56,1.23,1.54,1.49l5,1.54.07,1.91c-3.77-.07-7.42-.12-10.95-.12s-7.23.07-10.95.12l-.19-1.91,5.44-1.61c.74-.25,1.11-.68,1.18-1.35.07-1.18.07-2.47.07-3.96s.07-3.03.07-4.82v-35.79c0-1.49,0-2.84-.07-4.08,0-1.18-.07-2.28-.07-3.28-.07-.81-.37-1.23-1.05-1.49l-5.51-1.73-.07-1.91c3.77.12,7.42.19,10.95.19s7.17-.07,10.95-.19l.19,1.91-5.51,1.61c-.68.19-1.05.62-1.18,1.35-.07,1.05-.07,2.16-.07,3.4s-.07,2.6-.07,3.96v35.98h.08Z"/>
      <path class="cls-1" d="M694.62,242.75c-3.09-1.05-5.93-1.54-8.53-1.54-3.89,0-6.98.93-9.33,2.84-2.28,1.91-3.46,4.51-3.46,7.86,0,1.91.44,3.58,1.23,5s1.91,2.72,3.28,3.77c1.35,1.05,2.91,2.04,4.63,2.91s3.53,1.67,5.38,2.53c2.04.86,3.96,1.86,5.93,2.79,1.91.99,3.65,2.16,5.19,3.46,1.54,1.35,2.79,2.91,3.71,4.76s1.35,4.02,1.35,6.49c0,5.88-2.28,10.32-6.86,13.42-4.58,3.09-10.51,4.63-17.74,4.63-4.7,0-9.89-.81-15.51-2.41l-.25-.31,2.16-15.02,1.98-.31,3.09,12.55c3.16,1.23,6.3,1.86,9.58,1.86,4.39,0,7.79-.99,10.26-2.91s3.71-4.7,3.71-8.28c0-1.91-.44-3.53-1.18-4.95s-1.86-2.65-3.21-3.71-2.84-1.98-4.58-2.79c-1.73-.86-3.46-1.67-5.26-2.47-2.04-.86-4.08-1.86-6-2.84-1.91-1.05-3.71-2.23-5.26-3.58s-2.84-3.03-3.77-5c-.93-1.98-1.42-4.33-1.42-6.98,0-5.32,2.23-9.46,6.68-12.37,4.45-2.91,9.95-4.33,16.56-4.33,4.63,0,9.52.56,14.59,1.61l.31.31-2.6,13.79-1.73.31-2.97-11.07h.03Z"/>
      <path class="cls-1" d="M759.24,254.12l-1.73.25-3.21-11.63c-3.65-.86-6.98-1.35-9.95-1.35-7.23,0-12.86,2.53-17,7.54-4.14,5-6.18,11.56-6.18,19.6,0,8.6,2.35,15.46,7.05,20.58,4.7,5.14,11.25,7.67,19.54,7.67,4.7,0,9.58-.86,14.77-2.65l.49,1.98c-5.81,4.02-12.37,6-19.66,6-9.52,0-17.19-2.91-23.06-8.72-5.88-5.81-8.84-13.42-8.84-22.88,0-10.07,3.21-18.12,9.7-23.98,6.49-5.88,14.84-8.84,25.23-8.84,5,0,10.07.62,15.27,1.86l.31.31-2.72,14.28h0Z"/>
      <path class="cls-1" d="M787.05,270.01v17c0,3.46.07,6.42.07,8.72.07.81.44,1.3,1.18,1.49l4.88,1.54.12,1.91c-3.53-.07-6.98-.12-10.51-.12s-7.17.07-10.95.12l-.19-1.91,5.44-1.61c.81-.25,1.18-.68,1.18-1.35.07-2.41.07-5.32.07-8.78v-35.79c0-2.97-.07-5.38-.07-7.35-.07-.81-.37-1.23-1.05-1.49l-5.51-1.73-.07-1.91c3.77.12,7.42.19,10.95.19s7.05-.07,10.45-.19l.25,1.91-5,1.54c-.74.19-1.11.62-1.18,1.35-.07,2.1-.07,4.63-.07,7.42v14.96h32.14v-14.96c0-2.84-.07-5.32-.07-7.42-.07-.74-.44-1.18-1.18-1.35l-4.88-1.54-.07-1.91c3.58.12,7.17.19,10.63.19s7.05-.07,10.76-.19l.19,1.91-5.56,1.73c-.68.25-1.05.74-1.05,1.49-.07,1.91-.07,4.39-.07,7.35v35.79c0,3.46.07,6.42.07,8.78.07.68.44,1.11,1.18,1.35l5.32,1.61.07,1.91c-3.89-.07-7.6-.12-11.13-.12s-6.93.07-10.26.12l-.19-1.91,5-1.54c.74-.25,1.11-.68,1.18-1.49.07-2.35.07-5.26.07-8.72v-17h-32.15Z"/>
      <path class="cls-1" d="M916.38,254.12l-1.73.25-3.21-11.63c-3.65-.86-6.98-1.35-9.95-1.35-7.23,0-12.86,2.53-17,7.54-4.14,5-6.18,11.56-6.18,19.6,0,8.6,2.35,15.46,7.05,20.58,4.7,5.14,11.25,7.67,19.54,7.67,4.7,0,9.58-.86,14.77-2.65l.49,1.98c-5.81,4.02-12.37,6-19.66,6-9.52,0-17.19-2.91-23.06-8.72s-8.84-13.42-8.84-22.88c0-10.07,3.21-18.12,9.7-23.98,6.42-5.88,14.84-8.84,25.23-8.84,5,0,10.07.62,15.27,1.86l.31.31-2.72,14.28h0Z"/>
      <path class="cls-1" d="M939.75,238.92h10.7c6.61,0,13.54-.07,20.9-.19l.25.31-2.6,13.6-1.73.31-2.79-10.2h-20.4v24.3h4.02c3.03,0,6.49-.07,10.26-.07.81-.07,1.23-.44,1.49-1.18l1.54-5.93,2.41-.07c-.07,4.14-.12,7.17-.12,9.14s.07,4.88.12,9.02l-2.41.19-1.61-6.06c-.25-.81-.68-1.18-1.35-1.18-3.83-.07-7.3-.07-10.39-.07h-3.96v16.07c0,3.28.07,6.49.07,9.7h21.21l5.38-11.19,1.98-.31-.99,15.39-.31.31c-7.6-.07-14.65-.12-21.09-.12h-10.51c-3.58,0-7.23.07-10.95.12l-.19-1.91,5.44-1.61c.74-.25,1.11-.68,1.18-1.35.07-1.18.07-2.47.07-3.96s.07-3.03.07-4.82v-35.79c0-1.49,0-2.84-.07-4.08,0-1.18-.07-2.28-.07-3.28-.07-.81-.37-1.23-1.05-1.49l-5.51-1.73-.07-1.91c3.89-.07,7.54,0,11.07,0h0Z"/>
      <path class="cls-1" d="M993.35,251.28v35.67c0,3.46.07,6.37.07,8.65.07.81.44,1.35,1.11,1.49l5.26,1.54.07,1.98c-3.71-.07-6.68-.12-9.02-.12s-5.32.07-9.14.12l-.19-1.91,5.44-1.61c.81-.25,1.18-.68,1.18-1.35.07-2.41.07-5.32.07-8.78v-35.79c0-2.97-.07-5.38-.07-7.35-.07-.81-.37-1.23-1.05-1.49l-5.51-1.73-.07-1.91c3.77.12,6.8.19,9.02.19,1.35,0,2.66-.07,4.02-.19l37.09,46.3v-34c0-2.84-.07-5.32-.07-7.35-.07-.68-.44-1.11-1.18-1.35l-5.19-1.49-.07-2.04c3.77.12,6.8.19,9.14.19s5.38-.07,9.02-.19l.19,1.91-5.56,1.73c-.68.25-1.05.74-1.05,1.49-.07,1.91-.07,4.39-.07,7.35v49.33l-3.71.31-39.75-49.58Z"/>
      <path class="cls-1" d="M1075.15,300.49c-3.58,0-7.6.07-12,.12l-.19-1.91,6.49-1.91c.74-.25,1.11-.68,1.18-1.35.07-2.23.07-5.07.07-8.53v-44.02h-15.58l-3.96,11.75-1.73.31-1.18-15.77.31-.31c7.23.12,14.16.19,20.77.19h11.81c6.61,0,13.54-.07,20.9-.19l.25.31-2.79,15.46-1.73.31-2.84-12.05h-15.65v44.02c0,3.46.07,6.3.07,8.53.07.68.44,1.18,1.18,1.35l6.49,1.91.07,1.91c-4.39-.07-8.41-.12-11.93-.12h-.02Z"/>
      <path class="cls-1" d="M1123.81,286.96c0,1.73,0,3.34.07,4.76,0,1.42.07,2.65.07,3.83.07.93.44,1.49,1.18,1.73l4.88,1.42.12,1.91c-3.53-.07-6.98-.12-10.51-.12s-7.23.07-10.95.12l-.19-1.91,5.44-1.61c.74-.25,1.11-.68,1.18-1.35.07-1.18.07-2.47.07-3.96s.07-3.03.07-4.82v-35.79c0-1.49,0-2.84-.07-4.08,0-1.18-.07-2.28-.07-3.28-.07-.81-.37-1.23-1.05-1.49l-5.51-1.73-.07-1.91c3.77.12,7.54.19,11.13.19.68,0,1.61-.07,2.72-.07,1.11-.07,2.41-.12,4.02-.12,1.61-.07,2.97-.12,4.02-.12,1.05-.07,1.91-.07,2.53-.07,6.8,0,11.87,1.23,15.27,3.77,3.4,2.53,5.07,6.25,5.07,11.07,0,4.39-1.18,7.91-3.53,10.63-2.35,2.72-5.88,4.82-10.63,6.3,1.86,2.84,3.58,5.56,5.19,8.16,1.54,2.65,3.03,5.07,4.39,7.23,1.35,2.23,2.6,4.14,3.71,5.81s2.23,3.03,3.16,3.96c.49.49.99.93,1.49,1.3s.99.68,1.54.86c.56.25,1.11.44,1.73.62s1.23.31,2.04.49l.12,1.91c-2.1.25-3.89.44-5.32.44-1.18,0-2.28-.07-3.16-.07-.93-.07-1.73-.19-2.47-.31-.68-.19-1.35-.44-1.91-.68-.62-.31-1.18-.62-1.73-1.05-1.23-.86-2.41-2.23-3.58-3.96-1.18-1.73-2.41-3.71-3.71-5.88-1.23-2.16-2.6-4.51-3.96-6.98s-2.84-4.88-4.33-7.23c-.44-.68-.81-1.23-1.18-1.67-.31-.44-.68-.74-1.05-.99s-.81-.44-1.3-.49c-.49-.07-1.11-.12-1.91-.19l-3.09-.07v15.27h.07v.19l-.02-.02ZM1123.81,268.34c1.79.07,3.46.12,5,.12,5.07,0,8.84-1.05,11.19-3.21,2.41-2.16,3.53-5.56,3.53-10.14s-1.11-7.72-3.4-9.77-5.81-3.09-10.63-3.09c-.81,0-1.73.07-2.66.07-.93.07-1.98.12-3.03.25v25.79h-.01Z"/>
      <path class="cls-1" d="M1162.75,238.73c3.77.12,7.42.19,10.95.19s7.17-.07,10.95-.19l.19,1.91-5.51,1.61c-.68.19-1.05.62-1.18,1.35-.07,1.05-.07,2.16-.07,3.4s-.07,2.6-.07,3.96v24.17c0,8.41,1.35,14.28,4.02,17.49,2.66,3.21,6.98,4.88,12.93,4.88s10.39-1.67,13.11-5c2.72-3.34,4.08-8.96,4.08-16.81v-24.67c0-1.42,0-2.79-.07-3.96,0-1.23-.07-2.35-.12-3.4-.07-.68-.44-1.11-1.18-1.35l-5.19-1.49-.07-2.04c3.71.12,6.98.19,9.58.19s5.69-.07,9.33-.19l.19,1.91-5.56,1.73c-.68.25-1.05.74-1.05,1.49-.07.99-.07,2.04-.07,3.28s-.07,2.6-.07,4.08v22.63c0,9.65-1.98,16.81-5.88,21.39-3.96,4.63-10.14,6.93-18.55,6.93s-14.35-2.1-18.3-6.25c-3.96-4.14-5.93-10.63-5.93-19.42v-25.35c0-1.49,0-2.84-.07-4.08,0-1.18-.07-2.28-.07-3.28-.07-.81-.37-1.23-1.05-1.49l-5.51-1.73.19-1.91.03.02Z"/>
      <path class="cls-1" d="M1289.55,238.73c2.79.12,5.26.19,7.54.19s5.07-.07,8.77-.19l.19,1.91-5.56,1.73c-.68.25-1.05.74-1.05,1.49-.07,1.91-.07,4.39-.07,7.35v35.79c0,3.46.07,6.42.07,8.78.07.68.44,1.11,1.23,1.35l5.26,1.61.07,1.91c-3.89-.07-7.6-.12-11.13-.12s-6.93.07-10.32.12l-.19-1.91,5.07-1.54c.68-.25,1.05-.68,1.11-1.54.07-2.28.07-5.19.07-8.72v-38.21l-21.88,51.74-3.21.31-22-52.12v38.21c0,3.46.07,6.37.07,8.72.07.81.44,1.35,1.18,1.54l4.95,1.54.07,1.91c-3.53-.07-6.42-.12-8.77-.12s-5.32.07-9.14.12l-.19-1.91,5.44-1.61c.81-.25,1.18-.68,1.18-1.35.07-2.41.07-5.32.07-8.78v-35.79c0-2.97-.07-5.38-.07-7.35-.07-.81-.37-1.23-1.05-1.49l-5.51-1.73-.07-1.91c3.77.12,6.8.19,9.02.19,2.53,0,5.19-.07,7.91-.19l20.53,48.41,20.46-48.35h-.03Z"/>
    </g>
    <g id="Blauwpoorte">
      <path class="cls-1" d="M22.54,370.54c6.8,0,19.16.56,28.19,7.72,3.89,2.97,11.07,10.51,11.07,25.47,0,6.06-1.3,16.81-12.18,24.17,17.19,4.26,23.44,19.16,23.44,30.97s-5.93,21.39-12.55,26.52c-9.77,7.72-21.02,8.1-29.49,8.1H.4v-122.97h22.14v.02ZM14.07,424.57h10.32c7.17,0,24.17-1.49,24.17-20.46,0-20.28-19.91-20.65-23.81-20.65h-10.7v41.11h.01ZM14.07,480.65h15.65c7.91,0,15.65-.56,21.58-5.19,4.82-3.53,8.1-9.58,8.1-17,0-9.77-5.75-15.46-10.51-18.05-4.63-2.6-11.07-3.71-20.84-3.71h-13.97v43.95h0Z"/>
      <path class="cls-1" d="M166.16,370.54v110.05h33.88v12.93h-47.54v-122.97h13.67-.01Z"/>
      <path class="cls-1" d="M340.81,458.89h-52.37l-14.72,34.68h-15.09l56.51-128.97,55.14,128.9h-15.09l-14.4-34.62h.01ZM335.43,445.96l-20.65-49.28-21.02,49.28h41.67,0Z"/>
      <path class="cls-1" d="M455.67,445.96c0,10.32,0,21.58,9.77,29.86,5,4.26,13.48,6.98,20.28,6.98s15.27-2.79,20.28-6.98c9.77-8.28,9.77-19.54,9.77-29.86v-75.42h13.67v79.07c0,10.32-1.11,20.28-7.72,29.49-7.35,10.14-20.28,16.63-35.98,16.63s-28.56-6.42-35.98-16.63c-6.61-9.21-7.72-19.16-7.72-29.49v-79.07h13.67v75.42h-.02Z"/>
      <path class="cls-1" d="M616.24,370.54l32.46,92.18,38.51-98.42,36.54,98.42,35.98-92.18h15.09l-51.62,129.39-36.16-98.42-38.7,98.42-47.17-129.39h15.09-.01Z"/>
      <path class="cls-1" d="M868.84,370.54c12.37,0,22.69,1.49,30.97,8.65,9.02,7.72,11.25,18.61,11.25,26.34,0,17.37-10.88,34.49-38.89,34.49h-12v53.48h-13.67v-122.97h22.32ZM860.12,427.17h11.25c16.26,0,25.97-8.1,25.97-22.32,0-19.54-18.24-21.39-27.07-21.39h-10.14v43.71h-.01Z"/>
      <path class="cls-1" d="M978.33,432.12c0-36.72,28.56-63.62,63.99-63.62s63.99,26.89,63.99,63.62-28.37,63.62-63.99,63.62-63.99-27.07-63.99-63.62ZM992.37,432.12c0,28.19,22.32,50.7,49.95,50.7s49.95-22.51,49.95-50.7-22.32-50.7-49.95-50.7-49.95,22.51-49.95,50.7Z"/>
      <path class="cls-1" d="M1179.14,432.12c0-36.72,28.56-63.62,63.99-63.62s63.99,26.89,63.99,63.62-28.37,63.62-63.99,63.62-63.99-27.07-63.99-63.62ZM1193.11,432.12c0,28.19,22.32,50.7,49.95,50.7s49.95-22.51,49.95-50.7-22.32-50.7-49.95-50.7-49.95,22.51-49.95,50.7Z"/>
      <path class="cls-1" d="M1406.28,370.54c8.28,0,20.65.56,29.86,6.8,7.17,4.82,13.48,14.16,13.48,27.26,0,18.79-12.37,32.65-30.97,33.88l39.07,54.96h-16.63l-37.46-53.85h-3.53v53.85h-13.67v-122.97l19.84.07h.01ZM1400.22,427.54h8.65c17,0,27.07-8.1,27.07-22.51,0-6.8-2.04-13.67-9.77-18.05-5.56-3.16-11.81-3.53-17.74-3.53h-8.28l.07,44.07h0Z"/>
      <path class="cls-1" d="M1563.74,383.45v110.05h-13.67v-110.05h-29.86v-12.93h73.39v12.93h-29.86Z"/>
      <path class="cls-1" d="M1730.23,383.45h-50.14v36.54h48.72v12.93h-48.72v47.72h50.14v12.93h-63.81v-123.03h63.81v12.93h0Z"/>
    </g>
    <g id="Lijn_rechts" data-name="Lijn rechts">
      <rect class="cls-1" x="1386.49" y="261.85" width="343.74" height="6.3"/>
    </g>
    <g id="Lijn_links" data-name="Lijn links">
      <rect class="cls-1" x=".23" y="261.85" width="343.74" height="6.3"/>
    </g>
    <path id="Koepel" class="cls-1" d="M1078.37,184.69v13.97h-6.37v-12.55l-24.73-21.95c-.68-.62-1.05-1.42-1.05-2.41v-29.18l-26.95-3.34c-.81-.12-1.54-.49-2.1-1.18-.12-.19-15.46-18.86-36.84-37.34-27.95-24.11-53.35-36.79-73.69-36.79-7.79,0-11.56-12.24-15.09-25.84-.62-2.28-1.23-4.7-1.54-5.56-2.04-2.47-17.25-9.95-30.85-15.83h0c-13.6,5.88-28.81,13.42-30.85,15.83-.37.86-.99,3.21-1.54,5.56-3.53,13.6-7.35,25.84-15.09,25.84-20.28,0-45.75,12.74-73.69,36.79-21.39,18.42-36.72,37.16-36.84,37.34-.49.62-1.23,1.05-2.1,1.18l-26.95,3.34v29.18c0,.86-.37,1.79-1.05,2.41l-24.73,21.95v12.55h-6.3v-13.97c0-.86.37-1.79,1.05-2.41l24.73-21.95v-30.54c0-1.61,1.18-2.97,2.79-3.16l28.51-3.53c3.53-4.14,17.81-20.72,36.72-37.09,12.86-11.07,25.28-19.91,36.97-26.28,14.84-8.1,28.63-12.12,40.93-12.12.07,0,1.86-.07,4.45-6.42,1.91-4.51,3.4-10.39,4.51-14.65.93-3.65,1.42-5.63,2.04-6.8.86-1.79,3.09-4.33,19.1-12,7.6-3.71,15.14-6.93,16.14-7.35h.07c.07-.07.12-.07.25-.07.07-.07.12-.07.25-.07.07-.07.12-.07.19-.07.07-.07.19-.07.25-.07s.12-.07.25-.07h.49c.07,0,.12,0,.19.07.07,0,.12.07.19.07.12.07.31.07.49.12.07,0,.07.07.12.07h0s.07.02.07.07c.81.31,8.41,3.65,16.14,7.35,16.02,7.72,18.24,10.26,19.1,12,.56,1.18,1.05,3.16,2.04,6.8,1.11,4.26,2.6,10.14,4.51,14.65,2.65,6.37,4.45,6.42,4.45,6.42,12.3,0,26.03,4.08,40.93,12.12,11.68,6.37,24.17,15.21,36.97,26.28,18.91,16.32,33.2,32.89,36.72,37.09l28.51,3.53c1.61.19,2.79,1.54,2.79,3.16v30.54l24.73,21.95c.44.56.81,1.49.81,2.35h-.04Z"/>
  </g>
</svg>